<?xml version="1.0" standalone="no"?><!-- Generator: Gravit.io --><svg xmlns="http://www.w3.org/2000/svg" xmlns:xlink="http://www.w3.org/1999/xlink" style="isolation:isolate" viewBox="688.052 -1230.587 22 20" width="22" height="20"><path d=" M 699.922 -1217.517 L 697.382 -1220.027 L 697.412 -1220.057 C 699.152 -1221.997 700.392 -1224.227 701.122 -1226.587 L 704.052 -1226.587 L 704.052 -1228.587 L 697.052 -1228.587 L 697.052 -1230.587 L 695.052 -1230.587 L 695.052 -1228.587 L 688.052 -1228.587 L 688.052 -1226.597 L 699.222 -1226.597 C 698.552 -1224.667 697.492 -1222.837 696.052 -1221.237 C 695.122 -1222.267 694.352 -1223.397 693.742 -1224.587 L 691.742 -1224.587 C 692.472 -1222.957 693.472 -1221.417 694.722 -1220.027 L 689.632 -1215.007 L 691.052 -1213.587 L 696.052 -1218.587 L 699.162 -1215.477 L 699.922 -1217.517 Z  M 705.552 -1222.587 L 703.552 -1222.587 L 699.052 -1210.587 L 701.052 -1210.587 L 702.172 -1213.587 L 706.922 -1213.587 L 708.052 -1210.587 L 710.052 -1210.587 L 705.552 -1222.587 Z  M 702.932 -1215.587 L 704.552 -1219.917 L 706.172 -1215.587 L 702.932 -1215.587 Z " fill="rgb(130,130,130)"/></svg>